<?xml version="1.0" encoding="utf-8"?>
<!-- Generator: Adobe Illustrator 28.0.0, SVG Export Plug-In . SVG Version: 6.00 Build 0)  -->
<svg version="1.1" id="Layer_1" xmlns="http://www.w3.org/2000/svg" xmlns:xlink="http://www.w3.org/1999/xlink" x="0px" y="0px"
	 viewBox="0 0 256.6 383.2" style="enable-background:new 0 0 256.6 383.2;" xml:space="preserve">
<style type="text/css">
	.st0{fill:#7549EA;}
	.st1{fill:#FFFFFF;}
	.st2{fill:#000A35;}
</style>
<g>
	<g>
		<path class="st2" d="M245.7,4.3c2.3,1.4,4.1,3.2,5.5,5.5c1.4,2.3,2,4.8,2,7.6c0,2.7-0.7,5.2-2,7.6c-1.4,2.3-3.2,4.1-5.5,5.5
			c-2.3,1.4-4.8,2-7.6,2c-2.7,0-5.2-0.7-7.6-2c-2.3-1.4-4.2-3.2-5.5-5.5c-1.4-2.3-2-4.8-2-7.6c0-2.7,0.7-5.2,2-7.6
			c1.4-2.3,3.2-4.1,5.5-5.5c2.3-1.4,4.8-2,7.6-2C240.9,2.3,243.4,3,245.7,4.3z M244.6,28.4c1.9-1.1,3.5-2.7,4.6-4.6
			c1.1-1.9,1.7-4.1,1.7-6.4c0-2.3-0.6-4.5-1.7-6.4c-1.1-1.9-2.7-3.5-4.6-4.6c-1.9-1.1-4.1-1.7-6.4-1.7c-2.3,0-4.5,0.6-6.4,1.7
			c-1.9,1.1-3.5,2.7-4.6,4.6c-1.1,1.9-1.7,4.1-1.7,6.4c0,2.3,0.6,4.5,1.7,6.4c1.1,1.9,2.7,3.5,4.6,4.6c1.9,1.1,4.1,1.7,6.4,1.7
			C240.5,30.1,242.6,29.5,244.6,28.4z M244.1,16.4c-0.6,0.8-1.3,1.5-2.2,1.9l3.6,8.2h-2.9l-3.3-7.8h-3.7v7.8h-2.7V8.3h6.9
			c1,0,1.8,0.2,2.6,0.7c0.8,0.5,1.4,1.1,1.9,1.9c0.5,0.8,0.7,1.7,0.7,2.6C244.9,14.6,244.6,15.6,244.1,16.4z M235.5,10.8v5.4h3.9
			c0.8,0,1.5-0.2,2.1-0.7c0.5-0.5,0.8-1.1,0.8-2c0-0.8-0.3-1.5-0.8-2c-0.5-0.5-1.2-0.8-2.1-0.8H235.5z"/>
	</g>
	<g>
		<path class="st2" d="M96.8,238.5V122.2h41.4v110.4c0,28.5,16,38.1,36.5,38.1c20.8,0,36.8-9.6,36.8-38.1V122.2H253v116.4
			c0,47.4-34,68.5-78.3,68.5C130.7,307.1,96.8,285.9,96.8,238.5z"/>
		<polygon class="st2" points="44.6,99.4 128.9,52 202.7,94.4 253.3,94.4 253.3,78.4 129.1,2.3 2.6,78.3 2.6,376.3 2.7,376.3 
			2.7,380.9 253.3,380.9 253.3,339 44.6,339 		"/>
	</g>
</g>
</svg>
