<?xml version="1.0" encoding="utf-8"?>
<!-- Generator: Adobe Illustrator 28.0.0, SVG Export Plug-In . SVG Version: 6.00 Build 0)  -->
<svg version="1.1" id="Layer_1" xmlns="http://www.w3.org/2000/svg" xmlns:xlink="http://www.w3.org/1999/xlink" x="0px" y="0px"
	 viewBox="0 0 1396 353.2" style="enable-background:new 0 0 1396 353.2;" xml:space="preserve">
<style type="text/css">
	.st0{fill:#7549EA;}
	.st1{fill:#FFFFFF;}
	.st2{fill:#000A35;}
</style>
<g>
	<g>
		<path class="st0" d="M87.5,219.6V113.3h37.8v100.8c0,26,14.6,34.8,33.4,34.8c19,0,33.6-8.8,33.6-34.8V113.3h37.9v106.3
			c0,43.3-31,62.6-71.5,62.6C118.5,282.1,87.5,262.8,87.5,219.6z"/>
		<g>
			<path class="st2" d="M457.8,115.5v164.4H420v-117l-49.2,117h-20.2l-48.9-117.4v117.4h-37.8V115.5h52.8l44.1,103l44.4-103H457.8z"
				/>
			<path class="st2" d="M474.2,220.8c0-36,28-61.2,65.5-61.2c37.4,0,65.6,25.2,65.6,61.2c0,36.1-28.2,61.4-65.6,61.4
				C502.2,282.1,474.2,256.9,474.2,220.8z M570.5,220.8c0-18.2-13.8-30.8-30.9-30.8c-17.2,0-30.8,12.2-30.8,30.8
				c0,18.7,13.6,30.7,30.8,30.7C556.6,251.5,570.5,239.2,570.5,220.8z"/>
			<path class="st2" d="M692.4,160.7v34.7c-25.2,0-38.6,9-38.6,30.9v53.7h-36.5V161.8H652v23.5C657.9,174.7,671.8,162.1,692.4,160.7
				z"/>
			<path class="st2" d="M762.4,186v51.5c0,10.5,5.5,14.9,13.3,14.9h11.6v27.4h-21.5c-25.1,0-39.9-13.7-39.9-38.3V186h-18.3v-24.2
				h18.3v-32.7h36.6v32.7h25.4V186H762.4z"/>
			<path class="st2" d="M799,309.4l22.5-21c11.6,14.7,25.2,18.7,36.9,18.7c19.1,0,30.6-10.8,30.6-31.7v-12.9
				c-7.4,9.6-18.6,16.2-35.1,16.2c-31.5,0-56-24.7-56-59.9c0-35.4,24.5-59.2,55.4-59.2c16.7,0,28.1,6.8,35.7,16.6v-14.4h36.5v109.8
				c0,42.1-25.2,63.9-66.5,63.9C839.7,335.5,817.9,330.4,799,309.4z M892.2,218.8c0-18.4-12.8-29.9-29-29.9s-28.9,11.5-28.9,29.9
				c0,18.3,12.7,29.6,28.9,29.6S892.2,237.1,892.2,218.8z"/>
			<path class="st2" d="M938.1,220.6c0-36.1,26-61.8,56.4-61.8c16.7,0,28.9,6.7,36.8,16.4l0.2-13.4h36.5v118.1h-36.7v-13.6
				c-7.9,9.6-19.9,16.1-36.8,16.1C964.1,282.4,938.1,256.8,938.1,220.6z M1035.9,220.6c0-19.3-13.4-31.5-30.5-31.5
				c-17.5,0-30.9,12.2-30.9,31.5s13.4,31.5,30.9,31.5C1022.5,252,1035.9,239.9,1035.9,220.6z"/>
			<path class="st2" d="M1081.3,309.4l22.5-21c11.6,14.7,25.2,18.7,36.9,18.7c19.1,0,30.6-10.8,30.6-31.7v-12.9
				c-7.4,9.6-18.6,16.2-35.1,16.2c-31.5,0-56-24.7-56-59.9c0-35.4,24.5-59.2,55.4-59.2c16.7,0,28.1,6.8,35.7,16.6v-14.4h36.5v109.8
				c0,42.1-25.2,63.9-66.5,63.9C1122,335.5,1100.3,330.4,1081.3,309.4z M1174.6,218.8c0-18.4-12.8-29.9-29-29.9
				c-16.2,0-28.9,11.5-28.9,29.9c0,18.3,12.7,29.6,28.9,29.6C1161.8,248.3,1174.6,237.1,1174.6,218.8z"/>
			<path class="st2" d="M1343.2,226.8h-87.2c1.3,17.5,13.3,26.9,28.3,26.9c11.2,0,21-4.9,26.5-15.2l28.6,12
				c-9,19.5-28.9,31.6-55.1,31.6c-39,0-64.4-27-64.4-61.2c0-34.4,25.9-61.6,63.1-61.6c33.9,0,60.1,23.1,60.5,60.2L1343.2,226.8z
				 M1256.8,205.6h51.3c-1.6-13.2-11.5-20.5-24.8-20.5C1269.8,185.1,1259.9,192.6,1256.8,205.6z"/>
			<polygon class="st2" points="39.9,92.5 116.9,49.2 184.3,87.9 230.5,87.9 230.5,73.3 117.1,3.8 1.6,73.2 1.6,345.3 1.7,345.3 
				1.7,349.6 230.5,349.6 230.5,311.3 39.9,311.3 			"/>
		</g>
	</g>
	<g>
		<path class="st2" d="M1382.4,116.8c3.1,1.8,5.6,4.3,7.4,7.4c1.8,3.1,2.7,6.5,2.7,10.2c0,3.7-0.9,7.1-2.7,10.2
			c-1.8,3.1-4.3,5.6-7.4,7.4c-3.1,1.8-6.5,2.7-10.2,2.7c-3.7,0-7.1-0.9-10.2-2.7c-3.1-1.8-5.6-4.3-7.4-7.4
			c-1.8-3.1-2.7-6.5-2.7-10.2c0-3.7,0.9-7.1,2.7-10.2c1.8-3.1,4.3-5.6,7.4-7.4c3.1-1.8,6.5-2.7,10.2-2.7
			C1375.9,114,1379.3,114.9,1382.4,116.8z M1380.8,149.1c2.6-1.5,4.7-3.6,6.2-6.2c1.5-2.6,2.3-5.5,2.3-8.6c0-3.1-0.8-6-2.3-8.6
			c-1.5-2.6-3.6-4.7-6.2-6.2c-2.6-1.5-5.5-2.3-8.6-2.3c-3.1,0-6,0.8-8.6,2.3c-2.6,1.5-4.7,3.6-6.2,6.2c-1.5,2.6-2.3,5.5-2.3,8.6
			c0,3.1,0.8,6,2.3,8.6c1.5,2.6,3.6,4.7,6.2,6.2c2.6,1.5,5.5,2.3,8.6,2.3C1375.4,151.4,1378.2,150.6,1380.8,149.1z M1380.2,133
			c-0.8,1.1-1.8,2-3,2.5l4.9,11h-3.9l-4.5-10.4h-5v10.4h-3.7v-24.4h9.3c1.3,0,2.5,0.3,3.5,0.9c1.1,0.6,1.9,1.5,2.5,2.5
			c0.6,1.1,0.9,2.2,0.9,3.5C1381.3,130.5,1380.9,131.8,1380.2,133z M1368.6,125.5v7.3h5.2c1.1,0,2-0.3,2.8-1
			c0.7-0.7,1.1-1.5,1.1-2.6c0-1.1-0.4-2-1.1-2.7c-0.7-0.7-1.7-1-2.8-1H1368.6z"/>
	</g>
</g>
</svg>
